<svg xmlns="http://www.w3.org/2000/svg" xmlns:xlink="http://www.w3.org/1999/xlink" id="Livello_1" x="0px" y="0px" viewBox="0 0 979.8 975.8" style="enable-background:new 0 0 979.8 975.8;" xml:space="preserve"><style type="text/css">	.st0{fill-rule:evenodd;clip-rule:evenodd;fill:#E62C33;}	.st1{fill:#FFFFFF;}	.st2{fill:#E62C33;}</style><g>	<g>		<path class="st0" d="M485.3,217.3c145.8,0.8,263.3,119.6,262.6,265.3C747.1,628.4,628.3,746,482.5,745.2   c-145.8-0.8-263.4-119.5-262.6-265.3C220.6,334.1,339.4,216.6,485.3,217.3"></path>		<path class="st1" d="M490.1,297c5.3-0.5,7.7,2.1,10.1,4.6c3.6,3.8,6,8.9,7.3,15.1c1.8,9.2-1.9,52,2.4,54.9   c4.3,3.1,21.8,2.7,28.4,3.8c6.6,1.2,14.5,3.9,20.6,5.2c31.5,6.8,76.1,24.7,85.9,51.7c1.5,4,2.5,10-0.1,14.2   c-2.6,4.2-6.9,5.5-11.1,8.2c-7.7,4.9-17.4,10.8-26.3,14c-9.6,3.5-19.6,5.3-28.9,9.5c0.7,0.7,0.9,2.7,1.8,3.2   c5,2.6,10.8,2.7,16.1,4.7c10.3,3.8,27.2,10.8,34.8,17.6c2.9,2.6,6.4,6.2,8.1,10.1c3.2,7.6,2.8,19.5-0.1,28.8   c-3.1,10.1-10.1,14.5-17.1,20.6c-21.7,18.6-50.1,30.3-81.8,38.9c-6.2,1.8-37.4,4.2-39.4,7.1c-3,4.5-1.4,13.7-1.9,20.1   c-1.7,21.7,0.7,53.7-6.8,69.6c-2.6-0.4-4-0.1-5-1.8c-7.2-12.2-4.1-85.6-12.4-89.3c-4.7-2.2-12.9-0.4-18.4-1   c-9.7-1.1-19.2-2.8-28.9-4.3c-21.9-3.3-44.1-9.9-62.3-17.7c-11.7-5.1-22.5-11.9-34.8-16.7c-3.8-1.5-9-4.2-13.2-5.1   c-6.4-1.5-15.3-1.4-15.6-3.7c-0.4-2.5,5.5-6.4,10.6-7.2c14.2-2.3,31.1,2.3,44.5,3.4c18.9,1.5,38,1.8,56.4,3.9   c11.2,1.4,18.9,0.5,29.3,1.3c7.1,0.6,22.2,1.8,28.9-1c0.5-0.2,2.2-2.1,2.3-2.7c1.4-5.2-5.4-62-7-65.1c-2.2-4.2-75.6-8.6-88-9.6   c-8.9-0.7-17.6,0.3-22.9-3.8c-1.8-1.4-2.1-1.8-2.7-4.6c-0.9-4.5-0.2-9.6,2.8-11.4c5.9-3.8,18.4-1.1,27.1-1.8   c14.1-0.9,26.2-0.1,40.3-1.1c12-0.8,26.5,2.5,37.6-0.3c2.9-0.7,3-1.1,3.7-4.1c2.6-11.4,1.7-41.5,0.3-52.2   c-7.6-3.1-21.5-0.7-29.4,0.8c-21,3.7-39.2,5.6-57.8,11.2c-10.2,3-20.5,8.8-29.9,12.2c-5,1.8-8.9,2.2-13.3,4.1   c-5.1,2.1-13.5,7.4-18.4,8.6c-1.7,0.4-4.5-0.1-5.5-0.5c-0.9-0.4-0.8-0.7-1.4-0.9c-1.7-1-3.7-1.7-4.1-3.7   c-1.5-6.6,3.5-12.3,6.5-14.6c9.2-7.3,21.7-10.4,33.6-15c26.5-10.2,55.5-20.7,86.3-26.6c5-0.9,34.3-3.9,35.8-5.7   c4.2-5,2.2-17.2,3.8-24.3c2.3-9.8,4.1-22,6.6-32C479.7,308.4,480.7,297.9,490.1,297"></path>		<path class="st2" d="M513.9,400.6c-10.6,1.3-6.2,25.9-6.2,36.6c0.8,0,0.5,2.9,0.5,3.7c-0.3,3.8-2.6,18,1.3,20.2   c3.6,2,8.5,0.6,12.8,1c36.1,3.4,74.7-4.4,98.3-17.8c18.9-10.8-24.9-27.7-34.2-30.8c-16.9-5.7-29.6-7.9-50.5-10.8   C530,401.7,521.6,399.7,513.9,400.6"></path>		<path class="st2" d="M523,494.5c-3.2,0.4-12.4,1.2-16.1,2.2c-1.4,6.2-6,59.8-3,61.3l0,0.5c2.9,2,8.2,0.3,11.4,0.1   c30.6-2.2,54.7-8.8,77.6-17.9c8.3-3.3,15.8-5.1,23-9c25.1-13.8-29.1-24.8-39.3-27.2c-13.5-3.3-23.7-5.3-39.1-7.9   C534.2,495.9,527.1,493.9,523,494.5"></path>	</g>	<g>		<path d="M623.1,174c-3-1.3-5.5-2.9-7.7-4.9c-2.1-2-3.8-4.2-5.1-6.7c-0.2-0.4-0.3-0.8-0.4-1.3c-0.1-0.5-0.1-0.9-0.1-1.4   c0.3-1.6,0.8-3.5,1.7-5.9s1.6-4.3,2.1-5.8c0.2-0.5,0.6-0.8,1.1-0.8c0.5-0.1,1.1,0,1.7,0.3c0.4,0.2,0.7,0.4,1,0.7   c0.3,0.3,0.4,0.7,0.2,1.2c-1,6.1-0.6,10.9,1.2,14.5c1.8,3.6,4.2,6,7.3,7.4c2.5,1.1,4.9,1.5,7.3,1.3c2.4-0.2,4.6-1.1,6.5-2.6   c2-1.5,3.5-3.5,4.7-6.2c1.3-2.9,1.8-5.5,1.7-7.7c-0.2-2.2-0.9-4.4-2-6.5c-1.2-2.1-2.7-4.5-4.6-7.2c-2-3-4-6-5.9-9   c-1.9-3-3.2-6.1-4-9.2c-0.7-3.2-0.4-6.4,1.1-9.9c1.6-3.6,3.8-6.5,6.7-8.7c2.9-2.2,6.4-3.5,10.5-3.8c4.1-0.3,8.6,0.6,13.6,2.8   c2.6,1.1,4.7,2.4,6.3,3.7c1.7,1.4,2.9,2.5,3.9,3.5c0.5,0.5,0.8,1,1,1.7c0.2,0.7,0.2,1.3,0.1,1.9c-0.2,1.7-0.5,3.6-0.8,5.7   c-0.3,2.1-0.9,4.1-1.6,5.8c-0.3,0.8-1,0.9-2.1,0.5c-0.6-0.3-1.2-0.7-1.7-1.2c-0.5-0.5-0.7-1.1-0.7-1.6c0.1-4.4-0.3-8.1-1.5-10.9   c-1.1-2.9-3.2-5-6.3-6.3c-2.1-0.9-4.3-1.4-6.5-1.4c-2.2,0-4.3,0.6-6.2,1.9c-2,1.3-3.6,3.4-4.9,6.4c-0.9,2.1-1.1,4.4-0.5,6.7   c0.6,2.3,1.7,4.8,3.3,7.4c1.6,2.6,3.4,5.2,5.3,8c1.8,2.6,3.6,5.3,5.2,8.1c1.6,2.8,2.6,5.8,3.1,8.9c0.5,3.1-0.1,6.5-1.6,10   c-1.8,4.2-4.4,7.5-7.7,9.8c-3.3,2.3-7.1,3.6-11.3,3.8C632.3,177,627.8,176.1,623.1,174z"></path>		<path d="M668.4,194.8c-0.8-0.6-1.4-1.1-1.8-1.7c-0.4-0.5-0.4-1-0.2-1.3c0.5-0.8,2-0.6,4.3,0.5c2.7,1.3,5,1.8,6.8,1.6   c1.8-0.2,3.6-1.5,5.3-3.8l28.7-39.8c2-2.8,3.2-5.3,3.6-7.3c0.4-2-0.5-4.1-2.6-6.3c-0.9-1-1.5-1.8-1.8-2.5   c-0.3-0.7-0.3-1.2,0.1-1.7c0.3-0.4,0.7-0.5,1.3-0.3c0.6,0.2,1.3,0.6,2.2,1.2c1.7,1.2,3,2.1,3.8,2.8s1.6,1.2,2.4,1.8   c0.7,0.6,1.7,1.3,3,2.2c1.3,0.9,2.6,1.8,3.9,2.6c1.4,0.8,2.6,1.6,3.8,2.3c1.2,0.7,2.2,1.4,3.1,2c7.2,5.2,11.9,10.8,14.1,16.9   c2.2,6.1,1.5,11.8-2.4,17.1c-2.8,3.8-6.1,6.8-9.9,9c-3.8,2.2-8,3.1-12.6,2.8c-4.5-0.3-9.2-2.2-14.1-5.7c-1.4-1-2.3-2-2.7-2.9   c-0.4-0.9-0.5-1.6-0.2-2c0.2-0.3,0.6-0.4,1.1-0.5c0.6-0.1,1,0,1.3,0.2c0.3,0.2,0.8,0.6,1.4,1.1c0.6,0.5,1.6,1.3,2.8,2.2   c3.8,2.7,7.8,3.2,11.9,1.4c4.2-1.8,8.3-5.4,12.3-11c3.6-5,4.8-9.8,3.6-14.4c-1.2-4.6-4.1-8.5-8.7-11.8c-1.8-1.3-3.4-2-5-2.2   c-1.6-0.2-2.9,0.4-3.9,1.8l-32.5,45c-1.6,2.3-2.5,4.4-2.5,6.5s0.9,4.2,2.9,6.3c0.9,1,1.6,1.7,1.9,2.4c0.3,0.6,0.3,1.1,0,1.6   c-0.3,0.4-0.7,0.5-1.3,0.3c-0.6-0.2-1.3-0.6-2.2-1.2c-1.7-1.2-3-2.2-3.8-3c-0.8-0.8-1.6-1.5-2.2-2.1c-0.7-0.6-1.6-1.4-2.8-2.2   c-1.6-1.1-3-2.1-4.3-2.9c-1.3-0.8-2.6-1.6-3.9-2.3C671.6,197,670.1,196,668.4,194.8z"></path>		<path d="M728.9,242.9c-0.7-0.7-1.2-1.4-1.5-2c-0.3-0.6-0.3-1,0.1-1.4c0.7-0.6,2.1-0.2,4.2,1.4c2.4,1.8,4.6,2.8,6.6,3.1   c2,0.3,3.9-0.5,5.9-2.4l38.4-36c2-1.9,3-3.6,3.1-5.2c0.1-1.6-0.7-3.7-2.3-6.2c-1.4-2.2-1.7-3.6-0.9-4.4c0.3-0.3,0.8-0.3,1.4,0   c0.6,0.3,1.2,0.8,1.9,1.6c1.4,1.5,2.6,2.8,3.5,3.9c0.9,1,1.7,2,2.5,3c0.8,0.9,1.8,2,3.1,3.4c1.2,1.2,2.1,2.2,2.9,3   c0.8,0.8,1.6,1.6,2.5,2.4c0.9,0.9,2.1,2,3.5,3.6c0.7,0.7,1.2,1.4,1.5,2c0.3,0.6,0.3,1-0.1,1.4c-0.4,0.4-0.9,0.5-1.7,0.3   c-0.7-0.2-1.6-0.7-2.7-1.5c-2.4-1.7-4.4-2.7-6.2-2.8c-1.8-0.2-3.6,0.7-5.6,2.5l-38.4,36c-2,1.9-2.9,3.8-2.7,5.8   c0.2,2,1.1,4.3,2.7,6.8c0.7,1.1,1.2,2,1.4,2.7c0.2,0.7,0.1,1.2-0.3,1.6c-0.3,0.3-0.8,0.3-1.4,0c-0.6-0.3-1.2-0.8-1.9-1.6   c-1.4-1.5-2.6-2.8-3.4-3.9c-0.8-1.1-1.7-2.1-2.5-3c-0.8-1-1.8-2.1-3-3.4c-1.3-1.4-2.5-2.6-3.6-3.6c-1-1-2.1-2-3.2-3   C731.7,245.7,730.4,244.4,728.9,242.9z"></path>		<path d="M800.1,344.4c-0.3-0.6-0.5-2.1-0.6-4.5c0-2.4,0.6-5,1.9-7.9c0.2-0.5,0.7-1.9,1.6-4.2c0.9-2.3,2-5.3,3.3-8.9   c1.3-3.6,2.7-7.5,4.2-11.6c1.5-4.2,3-8.4,4.6-12.6c1.5-4.2,2.9-8.1,4.2-11.7c1.3-3.6,2.4-6.6,3.2-9.1c0.9-2.4,1.4-3.9,1.6-4.5   c0.3-0.8,0.5-1.5,0.6-1.9c0-0.5,0-0.8-0.2-1.1c-0.2-0.3-0.6-0.4-1.2-0.3c-0.6,0.2-1.1,0.4-1.5,0.6c-3.3,1.8-7.2,4-11.5,6.4   c-4.3,2.4-8.8,4.9-13.4,7.5c-4.6,2.6-9,5.1-13.2,7.5c-1.8,1-3.2,2.5-4.3,4.3c-1,1.8-1.1,4.1-0.1,6.8c0.5,1.3,0.7,2.2,0.7,2.9   c0,0.7-0.2,1.2-0.6,1.4c-0.4,0.2-0.8,0.1-1.3-0.3c-0.5-0.4-1-1.1-1.5-2c-1-1.8-1.8-3.2-2.2-4.2c-0.4-1-0.8-1.8-1.1-2.6   c-0.3-0.7-0.9-1.8-1.6-3c-0.7-1.2-1.3-2.1-1.7-2.8c-0.5-0.6-1-1.4-1.6-2.2c-0.6-0.8-1.4-2.1-2.5-3.9c-0.5-0.9-0.8-1.6-1-2.3   c-0.1-0.6,0-1.1,0.4-1.3c0.5-0.3,1-0.2,1.6,0.2c0.6,0.4,1.3,1.1,2.3,2.1c1.7,1.6,3.5,2.5,5.4,2.5c1.9,0,4-0.4,6.2-1.4   c2.7-1.2,6.2-2.9,10.6-5c4.4-2.2,9.2-4.6,14.5-7.4c5.3-2.8,10.7-5.8,16.3-9c3.6-2.1,5.6-4.5,6.1-7.2c0.5-2.7,0.3-5.9-0.4-9.4   c0-0.3-0.1-1.1-0.2-2.3c-0.1-1.2,0.2-1.9,0.8-2.3c0.6-0.3,1.2-0.3,1.7,0.2c0.5,0.5,0.9,0.9,1.1,1.3c1.1,2,1.9,3.6,2.6,4.8   c0.7,1.2,1.2,2.3,1.7,3.3c0.5,1,1,2.1,1.7,3.2c0.6,1.2,1.5,2.7,2.5,4.5c0.3,0.6,0.5,1.2,0.3,1.7c-0.1,0.5-0.4,1.1-0.6,1.7   c-0.2,0.5-0.9,2-1.8,4.6c-1,2.6-2.2,5.8-3.7,9.7c-1.5,3.9-3.1,8.1-4.8,12.6c-1.7,4.6-3.4,9.1-5.1,13.7c-1.7,4.6-3.3,8.8-4.8,12.7   c-1.5,3.9-2.7,7.1-3.6,9.7c-0.9,2.6-1.5,4.1-1.7,4.5c-0.1,0.4-0.3,1-0.5,1.9c-0.2,0.8-0.3,1.4,0,1.8c0.3,0.6,1.2,0.5,2.7-0.2   c0.9-0.5,2.7-1.6,5.4-3.1c2.7-1.5,5.9-3.3,9.7-5.5c3.8-2.2,7.9-4.5,12.4-7.1c4.4-2.6,9-5.2,13.6-7.8c1.3-0.8,2.1-2.2,2.4-4.2   c0.3-2,0.2-3.6-0.2-4.8c-0.5-1.3-0.8-2.5-1-3.6c-0.2-1.1-0.1-1.8,0.4-2.1c0.4-0.2,1,0.1,1.7,0.9c0.7,0.8,1.3,1.7,1.8,2.6   c0.4,0.7,0.8,1.3,1.1,2s0.7,1.3,1.1,1.9c0.4,0.6,0.7,1.3,1.1,1.9c0.9,1.6,1.7,2.9,2.3,3.8c0.6,0.9,1.2,1.9,1.9,3   c0.7,1.1,1.6,2.6,2.8,4.6c0.5,0.9,0.8,1.6,1,2.3c0.1,0.6,0,1.1-0.4,1.3c-0.9,0.5-2.3-0.2-3.9-2.2c-1.9-2.2-3.5-3.5-4.7-3.9   c-1.2-0.4-2.7-0.2-4.4,0.7c-0.3,0.2-1.7,0.9-4,2.2c-2.3,1.3-5.2,2.9-8.7,4.9c-3.5,2-7.3,4.2-11.3,6.5c-4.1,2.3-8.1,4.6-12.1,6.9   c-4,2.3-7.6,4.4-10.7,6.2c-1.6,0.9-3,1.8-4.3,2.7c-1.3,0.9-2.3,1.6-3.2,2.2c-0.9,0.6-1.5,1-2,1.3c-1.1,0.6-1.9,0.8-2.4,0.5   C800.8,345.3,800.4,344.9,800.1,344.4z"></path>		<path d="M828.1,443.7c-0.1-0.7,0.1-2.2,0.8-4.4c0.7-2.3,2.1-4.6,4.2-6.9c0.3-0.4,1.2-1.6,2.8-3.5c1.6-2,3.5-4.5,5.8-7.5   c2.3-3,4.8-6.3,7.6-9.8c2.7-3.5,5.4-7.1,8.2-10.6c2.7-3.5,5.2-6.8,7.5-9.9c2.3-3,4.3-5.6,5.8-7.7c1.6-2.1,2.6-3.3,2.9-3.8   c0.6-0.7,0.9-1.2,1.1-1.7c0.2-0.4,0.2-0.8,0.2-1.1c-0.1-0.4-0.4-0.6-1-0.6c-0.6,0-1.1,0-1.6,0.1c-3.7,0.7-8,1.6-12.9,2.6   c-4.9,1-9.9,2-15.1,3.1c-5.2,1.1-10.1,2.1-14.8,3.1c-2,0.4-3.8,1.4-5.3,2.8c-1.5,1.4-2.2,3.6-2.2,6.5c0.1,1.3,0,2.3-0.2,3   c-0.2,0.7-0.5,1.1-1.1,1.2c-0.5,0.1-0.8-0.1-1.2-0.7c-0.3-0.6-0.6-1.3-0.8-2.3c-0.4-2-0.7-3.6-0.8-4.6c-0.1-1-0.2-2-0.3-2.8   c-0.1-0.8-0.3-1.9-0.6-3.4c-0.3-1.4-0.6-2.4-0.8-3.2c-0.2-0.7-0.5-1.6-0.9-2.6c-0.3-1-0.7-2.5-1.2-4.5c-0.2-1-0.3-1.8-0.2-2.4   c0.1-0.7,0.3-1,0.8-1.1c0.5-0.1,1,0.1,1.4,0.6c0.4,0.5,0.9,1.4,1.5,2.6c1.1,2.1,2.6,3.4,4.4,4c1.8,0.6,4,0.8,6.4,0.5   c2.9-0.3,6.8-0.9,11.6-1.6c4.8-0.7,10.2-1.6,16.1-2.7c5.9-1.1,12-2.3,18.2-3.6c4-0.9,6.7-2.6,8-5c1.3-2.5,2.1-5.5,2.4-9.1   c0.1-0.3,0.3-1.1,0.5-2.2c0.3-1.1,0.7-1.8,1.4-1.9s1.2,0.1,1.5,0.7c0.3,0.6,0.6,1.2,0.6,1.5c0.4,2.2,0.7,4,1,5.4   c0.3,1.4,0.5,2.6,0.6,3.7c0.2,1.1,0.4,2.3,0.6,3.6c0.2,1.3,0.6,3,1,5c0.1,0.7,0.1,1.3-0.2,1.7c-0.3,0.5-0.7,0.9-1.1,1.4   c-0.4,0.4-1.4,1.7-3.1,3.8c-1.7,2.2-3.9,4.9-6.4,8.1c-2.6,3.2-5.4,6.8-8.4,10.6c-3,3.8-6,7.7-9,11.5c-3,3.8-5.8,7.4-8.4,10.7   s-4.7,6-6.4,8.1c-1.7,2.2-2.7,3.4-3,3.8c-0.2,0.4-0.6,0.9-1.1,1.6c-0.5,0.7-0.7,1.3-0.6,1.7c0.1,0.7,1,0.9,2.6,0.6   c1.1-0.2,3.1-0.7,6.1-1.3c3-0.6,6.6-1.4,10.9-2.3c4.3-0.9,8.9-1.9,13.9-3c5-1.1,10.1-2.2,15.3-3.4c1.5-0.4,2.7-1.5,3.6-3.3   c0.9-1.8,1.3-3.3,1.2-4.7c-0.1-1.3,0-2.6,0.1-3.7c0.1-1.1,0.5-1.8,1-1.9c0.5-0.1,0.9,0.4,1.3,1.4c0.4,1,0.7,2,1,3   c0.2,0.8,0.3,1.5,0.5,2.2c0.2,0.7,0.3,1.4,0.5,2.2s0.3,1.4,0.5,2.1c0.4,1.8,0.7,3.3,1,4.3c0.3,1.1,0.6,2.2,0.9,3.4   c0.3,1.2,0.8,3,1.3,5.3c0.2,1,0.3,1.8,0.2,2.5c-0.1,0.6-0.3,1-0.8,1.1c-1.1,0.2-2.1-0.9-3.1-3.3c-1.1-2.7-2.2-4.4-3.3-5.1   c-1-0.7-2.5-1-4.4-0.7c-0.4,0.1-1.9,0.4-4.4,0.9c-2.6,0.5-5.8,1.2-9.8,2.1c-3.9,0.9-8.2,1.8-12.7,2.7c-4.6,1-9.1,1.9-13.6,2.9   c-4.5,1-8.5,1.9-12.1,2.7c-1.8,0.4-3.5,0.8-4.9,1.3c-1.5,0.4-2.7,0.8-3.7,1.1c-1,0.3-1.8,0.5-2.3,0.6c-1.2,0.3-2,0.2-2.5-0.2   C828.6,444.8,828.3,444.3,828.1,443.7z"></path>		<path d="M830.8,476.5c0-1,0.1-1.8,0.3-2.4c0.2-0.6,0.5-0.9,1-0.9c0.9,0,1.6,1.3,2,3.9c0.5,3,1.4,5.2,2.6,6.8   c1.2,1.6,3.2,2.4,5.9,2.4l52.6,0.9c2.7,0,4.7-0.5,5.8-1.6c1.2-1.1,2.1-3.1,2.7-6.1c0.5-2.6,1.3-3.8,2.4-3.8c0.5,0,0.8,0.3,1,0.9   c0.2,0.6,0.3,1.4,0.3,2.4c0,2.1-0.1,3.8-0.2,5.2c-0.1,1.4-0.2,2.7-0.2,3.9c-0.1,1.2-0.1,2.8-0.1,4.5c0,1.7,0,3.1,0,4.2   c0,1.1,0.1,2.3,0.1,3.5c0.1,1.2,0.1,2.9,0,5c0,1-0.1,1.8-0.3,2.4c-0.2,0.6-0.5,0.9-1,0.9c-0.5,0-1-0.3-1.4-1   c-0.4-0.6-0.7-1.6-0.9-2.9c-0.5-2.9-1.3-5-2.5-6.3c-1.1-1.3-3.1-2-5.8-2.1l-52.6-0.9c-2.7,0-4.7,0.7-6,2.3   c-1.3,1.6-2.2,3.8-2.8,6.7c-0.3,1.3-0.5,2.3-0.9,2.9c-0.3,0.6-0.8,0.9-1.3,0.9c-0.5,0-0.8-0.3-1-0.9c-0.2-0.6-0.3-1.4-0.3-2.4   c0-2.1,0.1-3.8,0.3-5.2c0.1-1.4,0.3-2.7,0.4-3.9c0.1-1.2,0.2-2.8,0.2-4.5c0-1.9,0-3.6,0-5.1c-0.1-1.4-0.1-2.9-0.2-4.4   C830.8,480.4,830.8,478.6,830.8,476.5z"></path>		<path d="M811.3,599c0.2-0.7,1.1-1.9,2.7-3.6c1.6-1.7,3.9-3.2,6.9-4.3c0.5-0.2,1.8-0.8,4.1-1.9c2.3-1.1,5.1-2.4,8.5-4.1   c3.4-1.7,7.1-3.5,11.1-5.4c4-2,8-3.9,12-5.9c4-2,7.7-3.8,11.2-5.5c3.4-1.7,6.3-3.1,8.6-4.3c2.3-1.1,3.8-1.8,4.3-2.1   c0.8-0.4,1.4-0.7,1.8-1c0.4-0.3,0.6-0.6,0.7-0.9c0.1-0.4-0.1-0.7-0.6-1c-0.5-0.3-1-0.5-1.5-0.6c-3.7-1-7.9-2.1-12.7-3.4   c-4.8-1.3-9.7-2.6-14.8-4c-5.1-1.4-10-2.6-14.6-3.8c-2-0.5-4-0.5-6,0.1c-2,0.6-3.6,2.2-4.8,4.8c-0.5,1.2-1,2.1-1.5,2.6   c-0.5,0.5-0.9,0.7-1.5,0.6c-0.5-0.1-0.7-0.5-0.7-1.1c0-0.7,0.1-1.5,0.3-2.4c0.5-2,1-3.5,1.3-4.5s0.7-1.9,1-2.6   c0.3-0.8,0.6-1.9,1-3.3c0.3-1.4,0.6-2.4,0.7-3.2c0.1-0.8,0.2-1.7,0.4-2.7c0.1-1,0.5-2.5,1-4.6c0.2-1,0.5-1.7,0.9-2.3   c0.3-0.6,0.7-0.8,1.2-0.7c0.5,0.1,0.9,0.5,1,1.2c0.1,0.7,0.2,1.7,0.2,3.1c0.1,2.3,0.8,4.2,2.1,5.6c1.4,1.4,3.2,2.5,5.5,3.3   c2.8,1,6.5,2.3,11.1,3.8c4.6,1.5,9.8,3.1,15.6,4.8c5.8,1.7,11.7,3.3,17.9,4.9c4,1,7.1,0.7,9.4-0.9c2.3-1.6,4.3-4,6.2-7   c0.2-0.3,0.7-0.8,1.5-1.7s1.5-1.3,2.1-1.1c0.7,0.2,1,0.6,1,1.3c0,0.7,0,1.3-0.1,1.7c-0.6,2.2-1.1,3.9-1.5,5.3   c-0.4,1.3-0.7,2.5-1.1,3.6c-0.3,1-0.7,2.2-1.1,3.5c-0.4,1.3-0.8,2.9-1.3,5c-0.2,0.7-0.5,1.2-1,1.4c-0.5,0.3-1,0.5-1.6,0.8   c-0.5,0.2-2,0.9-4.5,2c-2.5,1.2-5.6,2.6-9.4,4.4c-3.8,1.7-7.8,3.6-12.2,5.7c-4.4,2.1-8.8,4.2-13.2,6.3c-4.4,2.1-8.5,4-12.3,5.8   c-3.8,1.8-6.9,3.3-9.3,4.4c-2.5,1.2-3.9,1.9-4.4,2.1c-0.4,0.2-0.9,0.5-1.7,1c-0.7,0.4-1.2,0.8-1.3,1.3c-0.2,0.7,0.5,1.3,2.1,1.7   c1.1,0.3,3.1,0.8,6,1.6c3,0.8,6.6,1.7,10.8,2.8c4.2,1.1,8.8,2.3,13.8,3.5c5,1.3,10,2.5,15.2,3.8c1.5,0.3,3.1-0.1,4.7-1.3   c1.6-1.2,2.6-2.4,3.2-3.6c0.5-1.2,1.1-2.3,1.8-3.3c0.6-1,1.2-1.4,1.8-1.2c0.5,0.1,0.6,0.7,0.6,1.8c-0.1,1.1-0.2,2.1-0.5,3.1   c-0.2,0.7-0.4,1.5-0.6,2.2c-0.2,0.7-0.4,1.4-0.5,2.1c-0.2,0.7-0.4,1.4-0.5,2.1c-0.5,1.8-0.8,3.2-1,4.3c-0.2,1.1-0.5,2.2-0.7,3.5   c-0.2,1.3-0.6,3-1.2,5.3c-0.2,1-0.5,1.7-0.9,2.3c-0.3,0.6-0.7,0.8-1.2,0.7c-1.1-0.3-1.5-1.7-1.3-4.3c0.2-2.9,0-4.9-0.6-6   c-0.6-1.1-1.8-2-3.7-2.6c-0.4-0.1-1.8-0.5-4.4-1.2c-2.5-0.7-5.8-1.5-9.7-2.5c-3.9-1-8.1-2.1-12.6-3.2c-4.5-1.2-9-2.3-13.5-3.5   c-4.5-1.1-8.5-2.1-12-3c-1.8-0.5-3.5-0.8-5-1.1c-1.5-0.3-2.8-0.5-3.8-0.7c-1-0.2-1.8-0.3-2.3-0.5c-1.2-0.3-1.9-0.7-2.1-1.3   S811.1,599.6,811.3,599z"></path>		<path d="M779.4,662.9c2.8-4.6,6.2-8.5,10.4-11.6c4.1-3.2,8.6-5.5,13.5-6.9c4.9-1.5,9.8-1.9,14.9-1.4c5.1,0.5,9.9,2.2,14.5,4.9   c4.9,3,8.9,6.7,12,11.2c3.1,4.5,5.2,9.4,6.3,14.7c1.1,5.3,1.3,10.7,0.4,16.2c-0.9,5.5-2.8,10.7-5.8,15.7c-0.7,1.1-1.7,2.6-3.1,4.4   c-1.4,1.8-2.9,3.7-4.5,5.6c-1.6,1.9-3.1,3.6-4.5,5c-1.4,1.5-2.4,2.4-3.2,2.9c-0.3,0.2-0.6,0.4-0.8,0.4c-0.2,0-0.5-0.1-0.9-0.2   c-2.1-0.9-4.1-1.8-6.2-2.8c-2-0.9-3.7-1.8-5-2.6c-0.5-0.3-0.8-0.7-1.1-1.3c-0.3-0.6-0.3-1,0-1.4c0.4-0.7,1-1,1.8-1   c0.8,0,1.6,0.1,2.3,0.3c1.3,0.2,2.5,0.4,3.5,0.4c1,0,2.2-0.1,3.7-0.3c0.8-0.1,2-0.5,3.6-1.3c1.6-0.8,3.4-2.1,5.4-3.9   c2-1.8,3.9-4.3,5.9-7.5c2.3-3.9,3.6-7.9,3.9-12c0.3-4.2-0.3-8.3-1.7-12.3c-1.4-4-3.6-7.7-6.4-11.1c-2.8-3.4-6.2-6.3-10.1-8.6   c-4.7-2.9-9.4-4.7-14-5.4c-4.6-0.8-8.9-0.7-13,0.2c-4.1,0.9-7.7,2.5-10.9,4.8s-5.8,5.1-7.8,8.5c-2.3,3.9-3.6,7-3.7,9.4   c-0.2,2.4-0.1,4.1,0.1,5c0.3,1.2,0.9,2.5,1.9,3.9c0.9,1.4,2.3,2.7,4,3.7c0.6,0.4,1.2,0.8,1.9,1.2c0.6,0.4,1.3,0.9,1.9,1.3   c0.6,0.4,1.3,0.8,1.9,1.2c0.7,0.4,1.4,0.8,1.9,1c0.5,0.2,1,0.3,1.4,0.3c1.1-0.1,2.2-0.7,3.5-1.7c1.3-1.1,2.4-2.2,3.4-3.4   c1-1.2,1.7-2.1,2.1-2.8c0.2-0.3,0.6-0.6,1.2-0.9c0.7-0.3,1.2-0.4,1.7-0.1c0.5,0.3,0.8,0.8,0.8,1.5c0,0.7-0.1,1.2-0.3,1.5   c-1,1.7-1.9,3.1-2.7,4.2c-0.8,1.2-1.6,2.3-2.4,3.6c-0.8,1.2-1.8,2.7-2.9,4.5c-1,1.7-1.9,3.2-2.4,4.5c-0.6,1.3-1.4,2.8-2.5,4.6   c-0.2,0.3-0.5,0.6-1.1,1.1c-0.5,0.4-1.1,0.5-1.8,0.1c-0.5-0.3-0.7-0.8-0.7-1.6c0-0.8,0.1-1.3,0.2-1.6c0.5-1.7,0.5-3.1,0.1-4.1   c-0.4-1-1.2-2-2.4-3c-1.3-1.1-2.6-2-3.6-2.7c-1.1-0.7-2.3-1.5-3.5-2.3l-2.7-1.6c-0.3-0.2-0.6-0.3-0.9-0.3c-0.3,0-0.6,0-1-0.1   c-0.5,0-0.9,0.1-1.4,0.3c-0.5,0.2-0.8,0.2-1.1,0c-0.3-0.2-0.6-0.4-1-0.8c-0.4-0.4-0.4-0.9-0.1-1.8c0.2-0.5,0.4-1.7,0.5-3.4   c0.1-1.8,0.4-4,0.8-6.5c0.4-2.6,1.1-5.4,2-8.4C776,669.2,777.5,666.1,779.4,662.9z"></path>		<path d="M705.1,749.4c0.8-0.6,1.5-1,2.1-1.2c0.6-0.2,1.1-0.1,1.3,0.2c0.3,0.4,0.3,1,0,1.6c-0.3,0.6-0.9,1.4-1.8,2.4   c-2,2.2-3.3,4.3-3.7,6.3c-0.4,2,0.2,4.1,1.9,6.4l27,36.2c2.1,2.9,3.8,5,5.1,6.4c1.3,1.4,2.3,2.4,3,2.8c0.7,0.4,1.4,0.5,1.9,0.2   c1-0.5,2-1,3-1.7c1-0.7,2.3-1.6,3.9-2.8l4.4-3.3c1.5-1.1,2.8-2.5,3.8-4.2c1-1.7,1.4-3.4,1.2-5.2c0-0.5-0.1-1.1-0.1-2   c0-0.9,0.1-1.8,0.3-2.6c0.2-0.8,0.5-1.4,1-1.8c0.3-0.2,0.5-0.2,0.8,0c0.3,0.2,0.5,0.4,0.8,0.7c0.5,0.6,0.8,1.4,0.9,2.2   c0.5,2.4,1,4.5,1.7,6.2s1.6,3.6,2.7,5.7c0.7,1.1,0.9,1.9,0.7,2.4c-0.2,0.4-0.4,0.8-0.7,0.9c-0.2,0.2-0.9,0.1-2-0.3   c-1.1-0.4-1.9-0.7-2.6-1c-0.8-0.3-2-0.2-3.6,0.5c-1.6,0.7-3,1.5-4.3,2.5l-32.9,24.5c-2.2,1.6-3.9,3.1-5,4.3   c-1.2,1.3-2.1,2.5-2.8,3.7c-0.5,0.9-0.8,1.8-0.9,2.6c-0.1,0.8-0.6,1.5-1.3,2c-0.2,0.1-0.5,0-1-0.4c-0.5-0.4-0.9-0.8-1.3-1.3   c-0.2-0.3-0.5-0.8-0.8-1.4c-0.3-0.6-0.6-1.1-0.7-1.5c-0.6-1.3-1.1-2.2-1.3-2.8c-0.2-0.6-0.4-1.1-0.6-1.6c-0.2-0.4-0.6-1-1.2-1.8   l-0.8-1.1c-0.4-0.6-0.8-1.3-1.1-2.2c-0.3-0.9-0.2-1.5,0.3-1.9c0.4-0.3,1-0.2,1.8,0.3c0.8,0.5,1.7,1.2,2.8,2.2   c1.2,1.1,2.7,1.6,4.6,1.5c1.8-0.2,4.2-1.3,7.2-3.6l9.4-7c1.4-1,2.3-2,2.7-2.9c0.4-0.9,0.1-2.1-0.8-3.8c-0.9-1.6-2.7-4.2-5.2-7.6   l-27.3-36.7c-1.7-2.2-3.6-3.4-5.7-3.5c-2.1-0.1-4.5,0.5-7.1,1.7c-1.2,0.6-2.1,1-2.8,1.1c-0.7,0.1-1.2,0-1.5-0.5   c-0.3-0.4-0.2-0.8,0.2-1.3c0.4-0.5,1-1.1,1.8-1.7c1.7-1.3,3.1-2.2,4.3-3c1.2-0.7,2.3-1.4,3.3-2.1c1-0.7,2.3-1.6,3.7-2.6   c1.6-1.2,2.9-2.2,4-3.1c1.1-0.9,2.2-1.9,3.4-2.9C702,751.8,703.4,750.7,705.1,749.4z"></path>		<path d="M581.9,812.4c2-0.8,4-1.4,5.9-1.7s3.8-0.4,5.7-0.1c1.9,0.3,3.7,0.9,5.6,2c2.6,1.5,5,2.9,7.4,4.3c2.4,1.4,4.9,3,7.7,5   c2.8,1.9,6.2,4.4,10.3,7.5c1.8,1.4,3.9,2.2,6.3,2.4c1.9,0.2,3.7,0.1,5.4-0.1c1.7-0.3,3-0.6,4.1-0.9c0.6-0.2,1-0.5,1-1   c0.1-0.5,0-1.1-0.2-1.8l-7.4-19.1c-0.9-2.3-2.2-4.1-4-5.4c-1.7-1.3-4-1.7-6.9-1.1c-1.3,0.3-2.3,0.3-3,0.3   c-0.7-0.1-1.1-0.4-1.3-0.9c-0.2-0.4,0-0.9,0.5-1.3c0.5-0.4,1.2-0.8,2.2-1.1c2-0.8,3.5-1.3,4.6-1.5c1.1-0.3,2.1-0.5,3-0.7   s2-0.6,3.4-1.1c1.8-0.7,3.4-1.4,4.8-2c1.4-0.7,2.7-1.3,4.1-2c1.4-0.7,3-1.4,5-2.2c0.9-0.4,1.7-0.6,2.4-0.6c0.7,0,1.1,0.2,1.2,0.6   c0.3,0.9-0.6,2-2.8,3.3c-2.6,1.6-4.2,3.2-5.1,4.8c-0.8,1.6-0.7,3.8,0.3,6.5l17.8,46.3c1.1,2.8,2,4.8,2.8,6.1   c0.8,1.3,1.8,2.1,2.9,2.3c1.1,0.2,2.8,0,5-0.5c1.3-0.3,2.3-0.4,3-0.2c0.7,0.2,1.2,0.5,1.4,1c0.2,0.4,0,0.9-0.5,1.3   c-0.5,0.4-1.2,0.8-2.2,1.1c-2,0.7-3.4,1.3-4.4,1.7c-1,0.4-1.9,0.7-2.8,1c-0.9,0.3-2,0.7-3.5,1.3c-1.4,0.5-2.6,1.1-3.6,1.6   c-1,0.5-2.2,1.1-3.5,1.7c-1.3,0.6-3,1.3-5.1,2.1c-8,3.1-14.6,3.9-19.9,2.5c-5.3-1.4-9.1-5-11.4-11c-1.3-3.3-1.7-6.3-1.3-9.2   c0.4-2.9,1.3-5.5,2.6-7.8c1.3-2.3,2.8-4.4,4.5-6.2c0.3-0.2,0.3-0.4,0.2-0.6c-0.1-0.2-0.4-0.5-0.7-0.8c-3.6-2.5-6.9-4.9-10.2-7.2   c-3.2-2.2-6.6-4.3-10.2-6.3c-3.6-2-7.7-3.8-12.3-5.6c-2.5-0.9-4.8-1.2-6.9-0.8c-2.1,0.4-4.4,1.1-6.9,2.1c-1.1,0.4-1.8,0.2-2.1-0.6   c-0.4-1.1-0.2-2.1,0.7-3.1c0.9-1,2-1.8,3.3-2.5C579.8,813.3,581,812.7,581.9,812.4z M637.2,834.8c-3.3,1.3-5.9,3.2-7.8,5.6   c-1.8,2.5-3,5.2-3.4,8.2c-0.4,3-0.1,5.8,1,8.6c1.1,3,2.6,5.5,4.3,7.7c1.7,2.2,4,3.6,6.8,4.2c2.9,0.6,6.6,0,11.1-1.7   c2.3-0.9,3.6-2.2,3.7-4c0.2-1.8-0.4-4.6-1.7-8.4c-0.6-1.8-1.5-4.3-2.7-7.4c-1.1-3.1-2.6-6.8-4.2-11.2c-0.7-1.8-1.6-2.7-2.8-2.7   C640.4,833.7,639,834.1,637.2,834.8z"></path>		<path d="M554,820.1c1-0.1,1.8-0.1,2.5,0c0.6,0.1,1,0.4,1,0.9c0.1,0.9-1.1,1.8-3.6,2.5c-2.9,0.9-4.9,2-6.2,3.4   c-1.3,1.4-1.7,3.5-1.4,6.2l5.8,52.1c0.3,2.8,1.1,4.7,2.3,5.7c1.2,1,3.4,1.7,6.4,1.9c1.3,0.1,2.3,0.3,3,0.6c0.7,0.3,1,0.7,1.1,1.3   c0.1,0.5-0.2,0.8-0.8,1.1c-0.6,0.3-1.4,0.4-2.4,0.6c-2.9,0.3-5.4,0.6-7.5,0.7c-2.1,0.1-4.1,0.3-6,0.5c-2,0.2-4.3,0.4-7,0.7   c-2.5,0.3-5.2,0.6-8,0.9c-2.8,0.4-5.4,0.7-7.8,0.9c-2.6,0.4-4.8,0.7-6.6,0.9c-1.8,0.2-2.9,0.4-3.2,0.4c-0.4,0-0.8,0-1.3-0.1   c-0.5-0.1-0.8-0.3-0.9-0.7c-0.6-2.1-1.2-4.2-1.9-6.3c-0.6-2.1-1-3.9-1.2-5.4c-0.1-0.7,0-1.2,0.4-1.4c0.3-0.3,0.7-0.4,1.1-0.5   c0.4,0,0.7,0,0.8,0.2c0.2,0.2,0.4,0.4,0.6,0.8c0.5,1.3,1.1,2.5,1.6,3.6c0.5,1.1,1.1,2,1.7,2.4c1.2,1.1,2.5,1.8,3.9,2.1   c1.4,0.3,2.8,0.3,4.2,0.2l15.2-1.7c0.6-0.1,1.4-0.5,2.4-1.3c1-0.8,1.4-1.8,1.3-2.8l-2.7-24.5c-0.1-0.7-0.4-1.3-0.8-1.7   c-0.5-0.5-1-0.7-1.5-0.6l-11.5,1.3c-2.2,0.2-3.7,0.8-4.5,1.7c-0.8,0.9-1.3,2.5-1.6,4.7c-0.3,1.7-0.9,2.7-1.8,2.8   c-0.3,0-0.7-0.1-1-0.4c-0.4-0.3-0.6-0.7-0.7-1.3c0-0.3-0.1-1-0.2-2.1c-0.1-1.1-0.1-2.2-0.2-3.4c0-1.2-0.1-2.1-0.2-2.7   c-0.1-0.8-0.2-1.8-0.4-3.1c-0.2-1.3-0.4-2.5-0.5-3.6c-0.2-1.2-0.3-1.9-0.3-2.2c-0.1-0.5-0.1-1,0-1.4c0.1-0.4,0.3-0.6,0.8-0.7   c1.2-0.1,2.2,1,3.1,3.4c0.7,1.7,1.4,3,2.3,3.7c0.9,0.8,2.1,1.1,3.6,0.9l10.8-1.2c1.3-0.1,2.3-0.4,2.9-0.8c0.6-0.4,0.9-1.3,0.7-2.6   l-2.5-22.2c-0.3-2.9-1.2-4.9-2.5-5.9c-1.4-1-3.3-1.3-6-1l-8.6,0.9c-2.5,0.3-4.5,0.6-6.1,1.1c-1.6,0.5-3,1.1-4.2,2   c-1.1,1-2.1,2.2-2.9,3.7c-0.8,1.5-1.7,3.5-2.7,5.9c-0.2,0.5-0.4,0.9-0.7,1.2c-0.3,0.3-0.6,0.5-1,0.5c-0.4,0-0.7-0.2-1-0.4   c-0.3-0.2-0.4-0.6-0.5-1.1c-0.1-0.7,0-1.9,0.2-3.7c0.2-1.8,0.5-3.6,0.8-5.5c0.4-1.9,0.7-3.4,1.1-4.6c0.2-0.6,0.3-1.1,0.5-1.5   c0.1-0.4,0.5-0.6,0.9-0.7c3.7-0.4,7.1-0.8,10.3-1c3.2-0.3,6.2-0.5,9-0.8c2.9-0.2,5.7-0.5,8.4-0.7c2.7-0.2,5.6-0.5,8.5-0.8   c1.7-0.2,3.2-0.4,4.4-0.7s2.5-0.5,3.8-0.8C550.2,820.5,551.9,820.3,554,820.1z"></path>		<path d="M407.2,814.5c0.7,0.1,2,0.9,3.8,2.4c1.9,1.5,3.5,3.6,4.9,6.4c0.2,0.4,1,1.7,2.3,3.9c1.3,2.2,2.9,4.9,4.9,8.1   c2,3.3,4.1,6.8,6.4,10.6c2.3,3.8,4.6,7.6,6.9,11.5c2.3,3.8,4.5,7.4,6.5,10.6c2,3.3,3.7,6,5,8.2c1.3,2.2,2.2,3.6,2.5,4.1   c0.4,0.8,0.8,1.3,1.2,1.7c0.3,0.3,0.7,0.5,1,0.6c0.4,0.1,0.7-0.2,0.9-0.7c0.2-0.6,0.4-1.1,0.5-1.5c0.7-3.7,1.4-8.1,2.3-13   c0.8-4.9,1.7-9.9,2.6-15.1c0.9-5.2,1.7-10.2,2.5-14.9c0.3-2.1,0.1-4.1-0.7-6c-0.8-1.9-2.5-3.4-5.3-4.4c-1.3-0.4-2.2-0.9-2.7-1.3   c-0.6-0.4-0.8-0.9-0.7-1.4c0.1-0.5,0.4-0.7,1.1-0.8c0.6-0.1,1.5-0.1,2.5,0.1c2.1,0.3,3.6,0.6,4.6,0.9c1,0.3,1.9,0.5,2.7,0.7   c0.8,0.2,1.9,0.4,3.4,0.6c1.4,0.2,2.5,0.3,3.2,0.4s1.7,0.1,2.7,0.1c1,0,2.6,0.2,4.6,0.5c1,0.2,1.8,0.4,2.4,0.7   c0.6,0.3,0.8,0.7,0.8,1.1c-0.1,0.5-0.5,0.9-1.1,1.1c-0.7,0.2-1.7,0.4-3,0.5c-2.3,0.3-4.1,1.1-5.4,2.6c-1.3,1.5-2.2,3.4-2.8,5.7   c-0.8,2.9-1.7,6.7-2.7,11.4c-1.1,4.7-2.2,10.1-3.3,16c-1.2,5.9-2.2,12-3.2,18.3c-0.6,4.1,0,7.1,1.8,9.2c1.8,2.1,4.4,3.9,7.6,5.5   c0.3,0.2,0.9,0.6,1.9,1.3c1,0.7,1.4,1.3,1.3,2c-0.1,0.7-0.5,1.1-1.2,1.2c-0.7,0.1-1.3,0.1-1.7,0c-2.2-0.4-4-0.8-5.4-1   c-1.4-0.3-2.6-0.5-3.7-0.7c-1.1-0.2-2.2-0.5-3.5-0.7c-1.3-0.2-3-0.5-5.1-0.8c-0.7-0.1-1.2-0.4-1.5-0.8c-0.3-0.4-0.6-1-0.9-1.6   c-0.2-0.5-1-2-2.4-4.3c-1.4-2.4-3.1-5.4-5.2-8.9c-2.1-3.6-4.3-7.5-6.8-11.7c-2.5-4.2-5-8.4-7.5-12.6c-2.5-4.2-4.8-8.1-6.9-11.7   c-2.1-3.6-3.9-6.6-5.3-8.9c-1.4-2.3-2.2-3.7-2.5-4.2c-0.3-0.4-0.6-0.9-1.1-1.6c-0.5-0.7-0.9-1.1-1.4-1.2c-0.7-0.1-1.2,0.6-1.5,2.2   c-0.2,1.1-0.5,3.1-1,6.1c-0.5,3-1.1,6.7-1.8,11c-0.7,4.3-1.5,9-2.3,14.1c-0.8,5.1-1.6,10.2-2.4,15.5c-0.2,1.5,0.4,3.1,1.8,4.5   c1.3,1.5,2.6,2.4,3.9,2.9c1.3,0.4,2.4,0.9,3.4,1.5c1,0.6,1.5,1.1,1.4,1.6c-0.1,0.5-0.7,0.7-1.8,0.7c-1.1,0-2.2,0-3.1-0.2   c-0.8-0.1-1.5-0.2-2.2-0.4c-0.7-0.1-1.5-0.2-2.2-0.3c-0.7-0.1-1.4-0.2-2.1-0.3c-1.8-0.3-3.3-0.5-4.4-0.6c-1.1-0.1-2.3-0.3-3.5-0.4   c-1.3-0.1-3.1-0.4-5.4-0.7c-1-0.2-1.8-0.4-2.4-0.7c-0.6-0.3-0.8-0.7-0.8-1.1c0.2-1.1,1.6-1.6,4.2-1.7c2.9-0.1,4.9-0.5,6-1.2   c1.1-0.7,1.8-2,2.3-3.9c0.1-0.4,0.3-1.9,0.8-4.5s1-5.9,1.6-9.9c0.6-4,1.3-8.3,2.1-12.9s1.5-9.2,2.2-13.7c0.7-4.6,1.4-8.6,1.9-12.2   c0.3-1.8,0.5-3.5,0.6-5c0.1-1.5,0.2-2.8,0.3-3.8c0.1-1,0.2-1.8,0.3-2.4c0.2-1.2,0.6-2,1.1-2.2C406,814.5,406.6,814.4,407.2,814.5z   "></path>		<path d="M342.5,790.5c0.7,0.3,2.2,1.2,4.5,2.5c2.3,1.3,5,2.8,8.1,4.4c3,1.6,6,3.1,8.8,4.5c1.4,0.7,2.6,1.2,3.6,1.6   c1,0.4,2,0.8,3.2,1.2c1.1,0.4,2.6,1.1,4.5,2c0.9,0.4,1.6,0.9,2,1.4c0.5,0.5,0.6,1,0.3,1.5c-0.3,0.6-0.7,0.8-1.4,0.7   c-0.6-0.1-1.6-0.3-2.9-0.7c-2.9-0.8-5.1-0.9-6.7-0.3c-1.6,0.6-3,2.2-4.2,4.7l-23.1,47c-1.2,2.5-1.6,4.5-1.1,6.1   c0.5,1.5,2,3.2,4.4,5c1.1,0.8,1.8,1.4,2.3,2c0.4,0.5,0.5,1.1,0.2,1.6c-0.2,0.5-0.7,0.7-1.3,0.6c-0.7-0.1-1.4-0.3-2.3-0.8   c-1.8-0.9-3.2-1.6-4.3-2.2c-1.1-0.6-2.1-1.1-3.1-1.7c-1-0.5-2.4-1.2-4.1-2.1c-1.1-0.5-2.5-1.2-4.3-2c-1.7-0.8-3.6-1.5-5.5-2.3   c-1.9-0.8-3.6-1.5-5.2-2.1c-1.5-0.7-2.6-1.2-3.3-1.5c-7.1-3.5-12.7-7.3-16.9-11.5c-4.2-4.2-7.1-8.5-8.7-13.1   c-1.6-4.6-2.2-9.2-1.8-14c0.5-4.7,1.8-9.4,4.1-14c2.5-5,5.7-9.3,9.7-12.7c4-3.5,8.6-6.1,13.6-7.8c5-1.7,10.2-2.5,15.5-2.2   C332.4,786.7,337.5,788,342.5,790.5z M342,794.8c-5.4-2.7-10.9-3.7-16.4-3.1c-5.5,0.6-10.5,2.7-15.2,6.2   c-4.6,3.5-8.4,8.3-11.4,14.4c-2.5,5-3.8,9.9-4.1,14.7c-0.3,4.8,0.3,9.2,1.8,13.2c1.5,4,3.6,7.6,6.4,10.8c2.8,3.1,5.9,5.6,9.5,7.3   c3,1.5,5.6,2.6,7.8,3.5c2.2,0.9,4.1,1.1,5.7,0.8c1.6-0.4,2.9-1.6,3.9-3.7l22.9-46.6c1.4-2.8,1.6-5.3,0.8-7.4   c-0.8-2.1-2.4-4-4.5-5.7C347,797.5,344.6,796,342,794.8z"></path>		<path d="M275.4,745.9c2.5,2.1,4.5,4.4,5.9,6.9c1.5,2.5,2.5,5.2,3,7.9c0,0.4,0,0.9,0,1.4c0,0.5-0.2,0.9-0.3,1.4   c-0.7,1.4-1.8,3.1-3.3,5.1c-1.5,2-2.7,3.6-3.7,5c-0.3,0.4-0.8,0.6-1.3,0.5c-0.5-0.1-1-0.3-1.5-0.7c-0.3-0.3-0.5-0.6-0.7-1   c-0.2-0.4-0.1-0.8,0.1-1.2c2.7-5.6,3.7-10.3,3-14.2c-0.7-3.9-2.3-7-4.8-9.1c-2.1-1.8-4.3-2.9-6.6-3.3c-2.4-0.5-4.7-0.3-7,0.6   c-2.3,0.8-4.4,2.4-6.2,4.6c-2.1,2.4-3.3,4.7-3.8,6.9c-0.5,2.2-0.5,4.5,0.1,6.8c0.5,2.4,1.3,5.1,2.3,8.2c1.1,3.4,2.1,6.9,3,10.3   c1,3.4,1.4,6.7,1.2,10c-0.2,3.2-1.5,6.3-3.9,9.1c-2.6,3-5.5,5.2-9,6.4c-3.4,1.3-7.1,1.5-11.1,0.6c-4-0.9-8-3.1-12.2-6.6   c-2.1-1.8-3.8-3.6-5-5.4c-1.2-1.8-2.1-3.3-2.7-4.5c-0.3-0.6-0.5-1.2-0.4-1.9c0-0.7,0.2-1.3,0.5-1.9c0.7-1.5,1.5-3.3,2.5-5.2   c0.9-1.9,2-3.6,3.2-5.1c0.6-0.7,1.3-0.6,2.2,0.2c0.5,0.5,1,1,1.3,1.7c0.3,0.7,0.4,1.2,0.2,1.7c-1.4,4.2-2,7.8-1.7,10.9   c0.3,3.1,1.7,5.7,4.2,7.8c1.8,1.5,3.7,2.6,5.8,3.2c2.1,0.7,4.3,0.6,6.5,0c2.2-0.7,4.4-2.2,6.5-4.7c1.5-1.8,2.3-3.9,2.4-6.3   c0.1-2.4-0.3-5.1-1.1-8c-0.8-2.9-1.7-6-2.8-9.2c-1-3-1.9-6.1-2.6-9.2c-0.7-3.2-0.9-6.3-0.4-9.4c0.5-3.1,1.9-6.2,4.4-9.1   c3-3.5,6.4-5.9,10.2-7.2c3.8-1.3,7.8-1.4,11.9-0.4C267.5,740.4,271.5,742.6,275.4,745.9z"></path>		<path d="M198.2,694.8c0.3,0.4,0.2,0.7-0.2,1c-1.1,0.7-2.3,1.3-3.7,1.8c-1.4,0.5-2.2,0.5-2.6,0.1c-2.5-2.8-5-5.6-7.5-8.4   c-2.5-2.8-4.9-5.7-7.3-8.6c-0.1-0.2-0.2-0.4-0.2-0.6c0-0.2,0.1-0.4,0.3-0.5c1.2-0.8,2.5-1.4,3.7-1.9c1.3-0.4,2.2-0.3,2.9,0.4   c2.4,2.6,4.8,5.3,7.2,8C193.2,688.8,195.7,691.7,198.2,694.8z"></path>		<path d="M169.6,590.5c1,3.1,1.4,6.1,1.3,9c-0.1,2.9-0.7,5.7-1.7,8.3c-0.2,0.4-0.4,0.8-0.7,1.1c-0.3,0.4-0.6,0.7-1,1   c-1.4,0.8-3.2,1.7-5.5,2.5c-2.3,0.9-4.3,1.6-5.8,2.2c-0.5,0.2-1,0.1-1.4-0.3c-0.4-0.4-0.7-0.8-0.9-1.4c-0.1-0.4-0.1-0.8-0.1-1.2   c0.1-0.4,0.3-0.7,0.7-1c5.2-3.3,8.6-6.8,10.1-10.5c1.5-3.7,1.8-7.1,0.8-10.3c-0.8-2.6-2.1-4.7-3.8-6.4c-1.7-1.6-3.8-2.7-6.2-3.2   c-2.4-0.5-5-0.3-7.7,0.5c-3,1-5.3,2.2-6.9,3.8c-1.6,1.6-2.8,3.5-3.6,5.8c-0.8,2.3-1.6,5-2.4,8.2c-0.9,3.5-1.9,6.9-2.9,10.3   c-1,3.4-2.4,6.4-4.3,9.1c-1.9,2.6-4.6,4.5-8.2,5.6c-3.8,1.2-7.4,1.4-11,0.7c-3.6-0.7-6.8-2.6-9.7-5.4c-2.9-2.9-5.2-6.9-6.8-12.1   c-0.8-2.7-1.3-5.1-1.4-7.2c-0.1-2.1,0-3.9,0.1-5.2c0-0.7,0.2-1.3,0.6-1.9c0.4-0.6,0.9-1,1.4-1.4c1.4-0.9,3-2,4.9-3.1   c1.8-1.1,3.6-2,5.4-2.6c0.8-0.3,1.4,0.2,1.7,1.3c0.2,0.7,0.3,1.4,0.2,2.1c-0.1,0.7-0.3,1.2-0.7,1.5c-3.4,2.8-5.9,5.5-7.3,8.3   c-1.4,2.7-1.6,5.7-0.6,8.9c0.7,2.2,1.8,4.2,3.2,5.8c1.4,1.7,3.2,2.8,5.5,3.5c2.2,0.6,4.9,0.5,8-0.5c2.2-0.7,4-2.1,5.4-4.1   c1.4-2,2.5-4.5,3.4-7.3c0.9-2.9,1.7-6,2.6-9.2c0.7-3.1,1.6-6.2,2.7-9.2c1.1-3.1,2.6-5.8,4.7-8.2c2.1-2.4,4.9-4.2,8.6-5.3   c4.4-1.4,8.5-1.6,12.4-0.6c3.9,1,7.3,3,10.3,6C165.8,581.6,168.1,585.6,169.6,590.5z"></path>		<path d="M156.2,542.5c0.1,1,0.1,1.8,0,2.5c-0.1,0.6-0.4,1-0.9,1c-0.9,0.1-1.8-1.1-2.6-3.5c-0.9-2.9-2.1-5-3.5-6.4   c-1.4-1.4-3.5-1.9-6.2-1.6l-52.2,6.6c-2.7,0.3-4.5,1.1-5.6,2.4c-1,1.3-1.6,3.4-1.8,6.4c-0.1,2.6-0.7,4-1.8,4.1   c-0.5,0.1-0.8-0.2-1.1-0.8c-0.3-0.6-0.5-1.4-0.6-2.4c-0.3-2.1-0.4-3.8-0.5-5.2c-0.1-1.4-0.2-2.7-0.3-3.9c-0.1-1.2-0.3-2.7-0.5-4.5   c-0.2-1.7-0.4-3.1-0.6-4.1c-0.2-1.1-0.4-2.2-0.6-3.4c-0.2-1.2-0.5-2.9-0.7-5c-0.1-1-0.1-1.8,0-2.5c0.1-0.6,0.4-1,0.9-1   c0.5-0.1,1,0.2,1.5,0.7c0.5,0.6,0.9,1.5,1.3,2.8c0.9,2.8,2,4.8,3.3,5.9c1.3,1.2,3.3,1.6,6,1.2l52.2-6.6c2.7-0.3,4.6-1.4,5.6-3.2   c1-1.8,1.6-4.1,1.8-7c0.1-1.3,0.2-2.3,0.4-3c0.2-0.7,0.6-1,1.2-1.1c0.5-0.1,0.8,0.2,1.1,0.8c0.3,0.6,0.5,1.4,0.6,2.4   c0.3,2.1,0.4,3.8,0.5,5.2c0.1,1.4,0.1,2.7,0.2,3.9s0.2,2.7,0.5,4.5c0.2,1.9,0.5,3.6,0.7,5c0.3,1.4,0.5,2.9,0.8,4.4   C155.7,538.6,155.9,540.4,156.2,542.5z"></path>		<path d="M158.3,418.4c-0.1,0.7-0.8,2-2.2,3.9c-1.4,1.9-3.4,3.7-6.2,5.3c-0.4,0.3-1.7,1.1-3.8,2.5c-2.1,1.4-4.7,3.1-7.9,5.3   c-3.1,2.1-6.6,4.4-10.3,6.9c-3.7,2.5-7.4,5-11.1,7.5c-3.7,2.5-7.1,4.8-10.3,7c-3.2,2.2-5.8,4-7.9,5.4c-2.1,1.5-3.5,2.4-4,2.7   c-0.8,0.5-1.3,0.9-1.6,1.2c-0.3,0.4-0.5,0.7-0.5,1c0,0.4,0.2,0.7,0.8,0.9c0.6,0.2,1.1,0.3,1.5,0.4c3.8,0.5,8.1,1,13.1,1.6   c4.9,0.6,10,1.2,15.3,1.8c5.2,0.6,10.3,1.2,15,1.7c2.1,0.2,4.1-0.1,6-1c1.9-0.9,3.2-2.7,4.1-5.5c0.4-1.3,0.7-2.2,1.1-2.8   c0.4-0.6,0.8-0.8,1.4-0.8c0.5,0,0.8,0.4,0.9,1c0.1,0.6,0.1,1.5,0,2.5c-0.2,2.1-0.4,3.6-0.7,4.7c-0.2,1-0.4,1.9-0.6,2.7   c-0.2,0.8-0.3,1.9-0.5,3.4c-0.1,1.4-0.2,2.5-0.2,3.3c0,0.8,0,1.7,0,2.7c0,1-0.1,2.6-0.3,4.6c-0.1,1-0.3,1.8-0.5,2.4   c-0.3,0.6-0.6,0.9-1.1,0.8c-0.5-0.1-0.9-0.4-1.2-1.1s-0.5-1.6-0.6-3c-0.4-2.3-1.4-4-2.9-5.2c-1.6-1.2-3.5-2-5.9-2.5   c-2.9-0.6-6.7-1.3-11.5-2.1c-4.8-0.8-10.2-1.6-16.1-2.5c-6-0.9-12.1-1.6-18.4-2.3c-4.1-0.4-7.1,0.3-9.1,2.3   c-2,1.9-3.7,4.5-5.1,7.8c-0.2,0.3-0.6,0.9-1.2,1.9c-0.6,1-1.3,1.4-2,1.4c-0.7-0.1-1.1-0.5-1.2-1.2c-0.1-0.7-0.2-1.3-0.1-1.7   c0.3-2.2,0.6-4,0.7-5.4c0.2-1.4,0.4-2.6,0.6-3.7c0.2-1.1,0.4-2.3,0.5-3.6c0.2-1.3,0.4-3,0.6-5.1c0.1-0.7,0.3-1.2,0.7-1.6   c0.4-0.3,0.9-0.7,1.5-1c0.5-0.3,1.9-1.1,4.2-2.7c2.3-1.5,5.2-3.4,8.7-5.6c3.5-2.2,7.2-4.7,11.3-7.4c4.1-2.7,8.1-5.4,12.2-8.1   c4.1-2.7,7.8-5.2,11.3-7.5c3.5-2.3,6.3-4.2,8.6-5.7c2.3-1.5,3.6-2.4,4-2.7c0.3-0.3,0.9-0.7,1.5-1.2c0.7-0.5,1-1,1.1-1.5   c0.1-0.7-0.7-1.2-2.3-1.4c-1.1-0.1-3.1-0.3-6.2-0.7c-3-0.4-6.7-0.8-11.1-1.3c-4.4-0.5-9.1-1-14.2-1.5c-5.1-0.5-10.3-1.1-15.6-1.6   c-1.6-0.1-3,0.6-4.4,2s-2.3,2.8-2.6,4.1c-0.4,1.3-0.8,2.5-1.3,3.5c-0.5,1-1,1.5-1.6,1.5c-0.5,0-0.7-0.6-0.8-1.7   c-0.1-1.1-0.1-2.2,0-3.2c0.1-0.8,0.2-1.5,0.2-2.3c0.1-0.7,0.2-1.5,0.2-2.2c0.1-0.7,0.2-1.4,0.2-2.1c0.2-1.9,0.3-3.3,0.4-4.4   c0.1-1.1,0.1-2.3,0.2-3.5c0.1-1.3,0.2-3.1,0.4-5.4c0.1-1,0.3-1.8,0.5-2.4c0.3-0.6,0.6-0.9,1.1-0.8c1.1,0.1,1.7,1.5,1.9,4.1   c0.2,2.9,0.7,4.9,1.5,5.9c0.8,1,2.1,1.7,4,2.1c0.4,0,1.9,0.2,4.5,0.5c2.6,0.3,5.9,0.7,9.9,1.1c4,0.4,8.3,0.9,13,1.4   c4.6,0.5,9.2,1,13.8,1.5c4.6,0.5,8.7,0.9,12.3,1.3c1.9,0.2,3.5,0.3,5.1,0.4c1.5,0,2.8,0.1,3.9,0.1c1,0,1.8,0.1,2.4,0.1   c1.2,0.1,2,0.5,2.3,1C158.2,417.3,158.3,417.8,158.3,418.4z"></path>		<path d="M181.5,349c-2.1,5-5,9.5-8.7,13.4c-3.7,3.9-7.9,7-12.6,9.4c-4.7,2.3-9.8,3.6-15.1,3.8c-5.4,0.2-10.8-0.8-16.2-3.1   c-5.2-2.2-9.6-5.3-13.1-9.4c-3.5-4.1-6.1-8.7-7.8-14c-1.7-5.2-2.4-10.7-2.1-16.5c0.3-5.7,1.6-11.4,3.9-16.9   c1.2-2.8,2.3-5.1,3.3-6.9c1-1.8,2.1-3.6,3.3-5.3c1.2-1.7,2.6-3.6,4.2-5.7c0.7-1,1.5-1.5,2.3-1.8c0.8-0.2,1.7-0.2,2.7,0.2   c1.7,0.6,3.6,1.1,5.5,1.7c2,0.6,4.4,1.4,7.2,2.5c0.5,0.1,0.8,0.5,0.9,1.2c0.1,0.7-0.1,1.3-0.5,1.8c-0.4,0.5-1,0.8-1.9,0.6   c-3-0.4-5.7-0.6-8.1-0.5c-2.4,0.1-4.6,0.8-6.6,2.1c-2,1.3-3.8,3.1-5.5,5.3c-1.7,2.3-3.1,4.9-4.4,7.8c-1.7,4.1-2.5,8.3-2.3,12.6   c0.2,4.2,1.2,8.3,3,12c1.8,3.8,4.3,7.1,7.3,10.1c3,3,6.5,5.3,10.5,6.9c4.4,1.8,9,2.9,13.8,3.3c4.8,0.4,9.5,0,14-1.2   c4.5-1.2,8.5-3.2,12.1-5.9c3.6-2.8,6.3-6.4,8.1-10.8c2.2-5.2,2.8-9.9,1.8-14.3c-0.9-4.4-3-8.6-6.3-12.7c-0.7-0.9-0.9-1.8-0.5-2.8   c0.4-1,1.2-1.2,2.3-0.7c0.6,0.2,1.4,0.8,2.6,1.6c1.1,0.8,2.3,1.7,3.5,2.8c1.2,1.1,2.2,2,3.1,2.9c0.8,0.9,1.3,1.6,1.4,2   c0.2,0.4,0.2,1.3,0,2.6c0,3.1-0.6,6.6-1.6,10.5C184.2,341.8,183,345.5,181.5,349z"></path>		<path d="M206.1,299.4c-0.6,0.8-1.2,1.4-1.7,1.8c-0.5,0.4-1,0.4-1.4,0.1c-0.7-0.6-0.5-2,0.7-4.3c1.4-2.7,2-4.9,1.8-6.8   c-0.1-1.9-1.3-3.6-3.5-5.3L160.4,253c-2.2-1.7-4.1-2.5-5.7-2.3c-1.6,0.2-3.5,1.3-5.7,3.3c-1,0.9-1.8,1.5-2.5,1.7   c-0.7,0.3-1.2,0.2-1.7-0.1c-0.4-0.3-0.4-0.7-0.2-1.3c0.2-0.6,0.6-1.3,1.3-2.1c1.8-2.3,3.3-4.3,4.7-5.9c1.3-1.6,2.6-3.2,3.8-4.7   c1.2-1.5,2.7-3.4,4.3-5.6c1.6-2,3.2-4.2,4.9-6.5c1.7-2.3,3.3-4.4,4.7-6.3c1.5-2.1,2.9-3.9,3.9-5.4c1.1-1.5,1.7-2.3,1.9-2.6   c0.2-0.3,0.6-0.6,1-0.9c0.4-0.3,0.8-0.3,1.1-0.2c2,1,3.9,2,5.8,3c1.9,1,3.5,2,4.7,2.9c0.6,0.4,0.8,0.8,0.8,1.3   c0,0.4-0.2,0.8-0.4,1.1c-0.2,0.3-0.5,0.5-0.7,0.5c-0.2,0-0.6,0-1-0.2c-1.3-0.5-2.5-1-3.7-1.4c-1.2-0.4-2.2-0.6-2.9-0.5   c-1.6,0.1-3,0.6-4.2,1.3c-1.1,0.8-2.2,1.8-3.1,2.9l-9.3,12.1c-0.4,0.5-0.6,1.4-0.7,2.7c-0.1,1.3,0.3,2.3,1.1,2.9l19.6,15   c0.6,0.4,1.2,0.6,1.8,0.6c0.7,0,1.2-0.3,1.5-0.7l7-9.2c1.4-1.8,2-3.3,1.9-4.4c-0.1-1.2-0.9-2.6-2.3-4.4c-1.1-1.4-1.3-2.5-0.8-3.2   c0.2-0.2,0.5-0.4,1-0.5c0.5-0.1,0.9,0.1,1.4,0.4c0.2,0.2,0.8,0.6,1.6,1.3c0.8,0.7,1.7,1.4,2.6,2.2c0.9,0.8,1.6,1.3,2.1,1.7   c0.6,0.5,1.4,1.1,2.5,1.8c1,0.7,2,1.5,3,2.1c0.9,0.7,1.5,1.1,1.8,1.3c0.4,0.3,0.8,0.7,1,1c0.2,0.3,0.2,0.7-0.1,1   c-0.7,0.9-2.2,0.9-4.6-0.1c-1.7-0.7-3.1-1-4.3-0.9c-1.2,0.1-2.2,0.8-3.1,2l-6.6,8.6c-0.8,1-1.3,1.9-1.4,2.7s0.3,1.5,1.4,2.3   l17.8,13.6c2.3,1.8,4.3,2.5,6,2.2c1.6-0.3,3.3-1.5,4.9-3.6l5.2-6.8c1.5-2,2.7-3.7,3.5-5.2c0.8-1.5,1.3-3,1.4-4.4   c0.1-1.5-0.1-3.1-0.7-4.7c-0.5-1.6-1.3-3.6-2.4-6c-0.2-0.5-0.4-0.9-0.4-1.4c-0.1-0.4,0.1-0.8,0.4-1c0.3-0.3,0.6-0.4,1-0.4   c0.4,0,0.7,0.1,1.1,0.4c0.6,0.4,1.4,1.3,2.6,2.7c1.2,1.4,2.3,2.9,3.4,4.4c1.1,1.6,2,2.9,2.6,3.9c0.3,0.5,0.5,1,0.7,1.4   c0.2,0.4,0.1,0.8-0.1,1.1c-2.3,3-4.4,5.7-6.4,8.2c-2,2.5-3.9,4.8-5.7,7.1c-1.8,2.2-3.6,4.4-5.3,6.6c-1.7,2.1-3.5,4.4-5.3,6.7   c-1,1.4-1.9,2.6-2.5,3.6c-0.7,1.1-1.3,2.1-2.1,3.3C208.4,296.4,207.4,297.8,206.1,299.4z"></path>		<path d="M285.1,215c-0.4,0.3-0.9,0.4-1.3,0.3c-0.4-0.1-0.7-0.2-0.9-0.5c-0.4-0.6-0.2-1.3,0.6-2.2c2.1-2.2,3.7-4.1,4.7-5.6   c1-1.5,1.4-3,1.2-4.4c-0.2-1.4-0.9-3-2.2-4.9l-25.3-36.6c-1.3-1.9-2.8-2.6-4.4-2.2c-1.7,0.4-3.6,1.2-5.7,2.5   c-0.7,0.4-1.4,0.6-2.1,0.7c-0.7,0.1-1.2-0.1-1.6-0.6c-0.3-0.4-0.3-1-0.1-1.6c0.3-0.7,0.7-1.2,1.3-1.7c1.7-1.6,3.2-3.1,4.3-4.4   c1.1-1.4,2-2.9,2.8-4.6c0.7-1.7,1.4-3.7,2.2-6.1c0-0.1,0.1-0.2,0.2-0.3c0.1-0.1,0.2-0.1,0.2-0.2c0.3-0.2,0.7-0.3,1-0.4   c0.4,0,0.6,0.1,0.7,0.4c0.5,1,1.2,2.2,1.9,3.3c0.7,1.2,1.5,2.4,2.4,3.8l30.4,44.1c1.1,1.6,2.1,2.7,3.1,3.2c1,0.5,2.3,0.6,3.9,0.2   c1.6-0.4,3.9-1.2,7-2.4c0.4-0.2,0.9-0.3,1.4-0.3c0.5,0,0.9,0.1,1.1,0.4c0.5,0.7,0.3,1.4-0.6,2c-1.8,1.2-3.4,2.3-4.7,3.1   c-1.4,0.8-2.7,1.6-4,2.4c-1.3,0.8-2.8,1.8-4.5,3c-2.6,1.8-4.7,3.4-6.4,4.8C289.9,211.6,287.7,213.2,285.1,215z"></path>		<path d="M353.9,176.1c-3.3,1.4-6.6,2.1-10.1,2c-3.5-0.1-6.7-1-9.5-2.7c-2.9-1.7-5-4.2-6.5-7.4c-1.4-3.1-1.7-6.1-1.1-9.1   c0.7-2.9,1.8-5.6,3.4-8.1c1.6-2.4,3.1-4.6,4.4-6.3c0.4-0.5,0.5-0.8,0.2-0.9c-0.2-0.1-0.6-0.2-1.2-0.4c-2.9-0.9-5.7-1.8-8.3-2.6   c-2.6-0.8-5-2-7.1-3.6c-2.1-1.6-3.8-3.9-5.1-6.8c-1.2-2.8-1.4-5.7-0.5-8.8c0.9-3.1,2.6-6,4.9-8.7c2.4-2.7,5.1-4.7,8.3-6.1   c2.8-1.3,5.8-1.9,8.9-1.8c3.1,0,5.9,0.7,8.5,2.1s4.5,3.6,5.8,6.5c1.1,2.6,1.4,4.9,0.8,7.1s-1.2,4-2,5.6c-0.6,1.3-1.2,2.4-1.7,3.4   c-0.5,0.9-1.2,2.2-2,3.6c-0.6,1-0.9,1.7-0.8,1.9c0.1,0.2,0.5,0.4,1.3,0.5c3.5,0.7,6.7,1.4,9.5,2.3c2.8,0.9,5.3,2.1,7.4,3.6   c2.1,1.5,3.7,3.7,5,6.5c1.6,3.7,2,7.4,1.2,11.2c-0.8,3.7-2.4,7.1-4.9,10.2C360.3,172.3,357.4,174.6,353.9,176.1z M341.3,134.4   c1.6-3.2,2.2-6.1,1.8-9c-0.4-2.8-1.3-5.9-2.7-9.1c-1.3-3-3.2-5.2-5.7-6.7c-2.5-1.5-5.3-1.5-8.4-0.2c-1.6,0.7-3.1,1.9-4.3,3.5   c-1.2,1.6-2,3.5-2.4,5.5c-0.4,2.1-0.2,4,0.7,5.9c1.2,2.7,2.7,4.6,4.4,5.7c1.7,1.1,3.8,1.9,6.3,2.4c2.5,0.5,5.4,1.2,8.8,2.2   c0.3,0,0.6,0.1,0.9,0C340.9,134.7,341.1,134.6,341.3,134.4z M354,172.4c3.1-1.4,5.2-3.7,6.3-6.9c1.1-3.2,0.9-6.4-0.5-9.5   c-1-2.2-2.5-4-4.6-5.5c-2.1-1.4-4.5-2.6-7.2-3.5c-2.7-0.9-5.4-1.6-8.1-2.1c-0.6-0.2-1.1-0.3-1.5-0.3c-0.4,0-0.8,0-1.1,0.2   c-0.3,0.1-0.6,0.5-1,1.2c-1.5,2.9-2.3,5.5-2.6,7.9c-0.3,2.4,0.3,5.3,1.8,8.7c1.1,2.5,2.6,4.7,4.6,6.6c1.9,1.9,4.1,3.2,6.6,3.9   C349.1,173.7,351.5,173.5,354,172.4z"></path>		<path d="M402.8,161.2c-0.8,0.2-1.8,0.3-2.8,0.3c-1,0-1.6-0.2-1.7-0.8c-0.1-0.6,0.3-1.2,1.2-1.9c0.9-0.6,1.7-1,2.4-1.2   c6-1.3,10.7-3.4,14.1-6.4c3.4-3,5.8-6.3,7-10c1.2-3.7,1.5-7.1,0.8-10.4c-0.6-3-2.1-5.4-4.3-7.3c-2.2-1.9-5.5-3.4-9.9-4.4   c-4.4-1-10.2-1.7-17.3-2c-1.2-0.6-2.1-1.3-2.6-2.1c-0.6-0.7-1-1.6-1.2-2.6c-0.2-1.1-0.3-2.4-0.2-4c0.1-1.6,0.3-3.3,0.5-5.2   c0.2-1.8,0.5-3.7,0.7-5.5c0.2-1.8,0.4-3.3,0.5-4.6c0.1-1.2,0.5-2.2,1.1-3c0.6-0.8,1.5-1.5,2.7-2.1c1.6-0.8,3.3-1.6,5.1-2.4   c1.7-0.8,3.6-1.5,5.5-2.3c1.9-0.8,3.9-1.5,5.9-2.2c2-0.7,4.1-1.4,6.3-2.1c0.6-0.2,1.1-0.1,1.4,0.2c0.4,0.4,0.4,0.8,0.3,1.4   c-0.2,0.7-0.4,1.4-0.6,2.1c-0.2,0.7-0.4,1.4-0.6,2.1c-0.3,1.3-0.7,2.2-1.2,2.9c-0.5,0.7-1.3,1.2-2.2,1.6c-1.4,0.5-3,1-4.9,1.6   c-1.9,0.6-3.7,1.2-5.6,1.8c-1.9,0.6-3.6,1.1-5.1,1.6c-1.6,0.5-2.7,0.9-3.5,1.2c-0.5,0.2-1,1-1.5,2.4c-0.5,1.4-0.9,2.9-1.2,4.4   c-0.3,1.5-0.4,2.6-0.4,3.2c0,0.5,0.2,1,0.5,1.3c0.3,0.3,0.8,0.5,1.5,0.5c4.5,0.3,8.6,0.7,12.4,1.2s7.1,1.2,9.9,2   c4.7,1.3,8.4,3.2,11.2,5.7c2.7,2.5,4.6,6.1,5.6,10.8c0.9,4.2,0.5,8.3-1.2,12.5c-1.7,4.2-4.4,7.9-8.2,11.3c-1.8,1.6-3.8,3-5.9,4.3   c-2.1,1.3-4.4,2.4-6.8,3.4C408.1,159.8,405.6,160.6,402.8,161.2z"></path>		<path d="M488.6,147.1c-4,0.1-7.4-1-10.4-3.1c-2.9-2.1-5.4-5-7.4-8.6c-2-3.6-3.5-7.5-4.5-11.9c-1-4.3-1.5-8.6-1.6-12.9   c-0.1-4.4,0.3-8.9,1.2-13.4c0.9-4.5,2.2-8.7,4.2-12.4c1.9-3.8,4.4-6.8,7.5-9.1c3.1-2.3,6.7-3.5,11-3.6c4-0.1,7.4,1,10.4,3.1   c2.9,2.1,5.4,5,7.4,8.6c2,3.6,3.5,7.5,4.5,11.8c1,4.3,1.5,8.5,1.6,12.7c0.1,4.3-0.3,8.8-1.2,13.3c-0.9,4.5-2.2,8.7-4.2,12.5   c-1.9,3.8-4.4,6.9-7.4,9.3C496.6,145.8,493,147.1,488.6,147.1z M490.5,144.1c3.1,0,5.6-1.7,7.4-4.8c1.9-3.2,3.2-7.3,3.9-12.3   c0.8-5.1,1.1-10.5,1-16.3c-0.1-4.3-0.5-8.6-1.2-12.8c-0.7-4.2-1.8-8-3.2-11.4c-1.4-3.4-3.1-6.1-5.1-8.1c-2-2-4.3-3-7-2.9   c-3.1,0-5.5,1.6-7.3,4.7c-1.8,3.1-3,7.1-3.8,12.1c-0.7,5-1.1,10.4-1,16.3c0.1,4.3,0.5,8.6,1.2,12.9c0.7,4.3,1.8,8.1,3.1,11.5   c1.3,3.4,3,6.2,5,8.2C485.6,143.1,487.9,144.1,490.5,144.1z"></path>		<path d="M540.3,128.8c-0.5-0.1-0.7-0.3-0.6-0.8c0.2-1.3,0.6-2.6,1.2-3.9c0.6-1.3,1.1-2,1.7-2c3.8,0.1,7.5,0.2,11.3,0.3   c3.8,0.1,7.5,0.3,11.2,0.6c0.2,0,0.4,0.1,0.6,0.3c0.2,0.1,0.2,0.3,0.2,0.6c-0.2,1.5-0.7,2.8-1.2,4c-0.6,1.2-1.3,1.8-2.3,1.8   c-3.5,0-7.1-0.1-10.8-0.2C548.1,129.3,544.3,129.1,540.3,128.8z"></path>	</g></g></svg>